<?xml version="1.0" standalone="no"?>
<!DOCTYPE svg PUBLIC "-//W3C//DTD SVG 20010904//EN"
 "http://www.w3.org/TR/2001/REC-SVG-20010904/DTD/svg10.dtd">
<svg version="1.0" xmlns="http://www.w3.org/2000/svg"
 width="640.000000pt" height="640.000000pt" viewBox="0 0 640.000000 640.000000"
 preserveAspectRatio="xMidYMid meet">
<metadata>
Created by potrace 1.14, written by Peter Selinger 2001-2017
</metadata>
<g transform="translate(0.000000,640.000000) scale(0.100000,-0.100000)"
fill="#000000" stroke="none">
<path d="M3146 6148 c-13 -43 -14 -67 -4 -95 7 -18 16 -33 20 -33 4 0 8 -5 8
-11 0 -7 -10 -9 -24 -7 -25 5 -51 -19 -51 -47 0 -8 -3 -15 -7 -15 -77 -1 -80
0 -75 20 3 13 -1 24 -14 31 -24 13 -42 2 -36 -21 4 -15 -7 -20 -70 -30 -73
-13 -76 -12 -92 8 -11 15 -28 22 -56 23 -56 2 -75 8 -75 24 0 11 8 13 30 9 22
-5 31 -2 36 10 5 13 15 15 55 10 40 -5 49 -4 49 9 0 8 -6 17 -13 20 -17 6 -68
-3 -84 -15 -7 -5 -25 -7 -42 -3 -22 5 -32 2 -39 -11 -8 -14 -13 -15 -24 -7 -7
7 -46 13 -86 14 -40 1 -72 6 -72 11 0 4 4 8 9 8 5 0 22 5 38 11 38 16 85 11
101 -9 12 -16 14 -16 28 2 8 11 14 23 14 28 0 4 -45 8 -100 8 -99 0 -100 0
-100 -24 0 -14 -4 -28 -10 -31 -21 -13 -8 -25 28 -25 48 0 84 -19 89 -47 4
-31 -29 -30 -82 2 -22 14 -43 25 -47 25 -17 0 -6 -39 15 -53 12 -8 19 -18 15
-22 -15 -16 -172 -47 -267 -52 l-103 -6 -49 -48 c-26 -27 -56 -49 -67 -49 -10
0 -27 -7 -38 -15 -10 -8 -26 -15 -35 -15 -42 -1 -309 -167 -309 -193 0 -4 29
-5 64 -1 72 7 159 -2 151 -17 -4 -5 -1 -9 6 -9 7 0 -2 -11 -21 -25 -19 -14
-39 -25 -45 -25 -12 0 -55 -41 -55 -53 0 -12 49 -3 54 10 6 16 32 17 41 2 4
-6 -2 -13 -14 -16 -12 -3 -21 -10 -21 -16 0 -5 -7 -15 -17 -22 -17 -13 -10
-35 12 -35 7 0 15 -12 17 -27 4 -36 46 -46 55 -13 8 29 25 20 29 -14 2 -16 7
-33 12 -38 14 -14 42 2 42 24 0 15 4 18 17 14 10 -4 14 -4 10 0 -4 4 -2 13 4
20 17 21 -51 38 -101 24 -47 -13 -54 -10 -46 17 5 16 19 18 111 20 58 1 124 8
148 14 23 7 61 13 85 15 25 1 52 10 63 20 29 26 59 28 59 4 0 -27 -109 -136
-132 -132 -13 2 -18 -3 -18 -22 0 -14 -4 -28 -10 -31 -22 -14 -8 -25 33 -25
32 0 45 -5 55 -21 7 -11 21 -19 30 -18 31 3 39 -1 49 -24 8 -17 7 -28 -3 -42
-21 -28 -17 -44 11 -55 14 -5 25 -13 25 -18 0 -13 -85 -102 -97 -102 -6 0 -13
11 -15 25 -4 19 -1 25 12 25 11 0 20 10 24 25 7 26 1 45 -12 45 -16 0 -43 -61
-41 -92 1 -39 -5 -69 -21 -98 -6 -12 -9 -29 -7 -38 4 -16 5 -16 6 0 0 9 10 19
20 23 25 8 160 151 157 167 -1 7 -10 30 -21 52 -18 38 -18 39 0 52 17 12 17
14 2 14 -28 0 -19 27 14 44 29 15 33 14 59 -4 33 -24 49 -25 75 -6 11 7 40 17
65 21 25 4 57 16 72 27 15 10 50 22 78 25 28 3 53 10 56 14 3 5 13 9 22 9 14
0 17 -7 14 -39 -3 -28 0 -40 12 -44 11 -5 16 -1 16 13 0 26 16 26 23 -1 4 -14
-1 -22 -17 -29 -12 -4 -28 -15 -35 -24 -14 -16 -42 -22 -39 -8 2 12 -14 42
-23 42 -5 0 -9 -9 -9 -20 0 -13 -7 -20 -20 -20 -13 0 -20 7 -20 20 0 27 -31
26 -48 -1 -9 -15 -21 -20 -37 -17 -16 4 -22 1 -18 -9 6 -16 45 -17 60 -2 11
11 83 3 83 -10 -1 -19 -20 -30 -53 -29 -51 2 -56 -8 -12 -22 37 -12 125 -6
125 9 0 5 25 8 55 8 63 0 88 16 114 73 35 78 93 120 106 79 4 -10 10 -19 15
-19 4 0 11 -11 14 -25 4 -14 18 -31 31 -37 13 -6 23 -14 20 -17 -8 -14 13 -34
26 -25 8 5 19 9 24 9 11 0 15 8 15 31 0 8 -5 12 -10 9 -6 -4 -8 -11 -5 -16 4
-5 -1 -9 -9 -9 -9 0 -16 5 -16 11 0 10 -10 24 -63 80 -22 24 -20 81 3 77 8 -2
16 -13 18 -25 2 -13 19 -31 40 -44 20 -12 43 -29 50 -37 14 -19 16 -112 2
-112 -5 0 -10 -7 -10 -15 0 -8 4 -15 10 -15 5 0 7 -7 4 -15 -5 -11 -2 -13 10
-9 11 4 16 0 16 -13 0 -11 24 -43 55 -71 31 -29 57 -63 60 -79 4 -15 17 -50
30 -78 23 -48 24 -49 25 -19 0 18 -7 45 -15 60 -8 16 -15 38 -15 49 0 12 -6
27 -12 34 -10 11 -10 14 0 18 22 8 13 20 -13 15 -18 -3 -26 1 -31 14 -3 11 -9
28 -14 39 -20 49 -20 55 1 55 12 0 38 -18 59 -42 34 -39 41 -42 59 -30 25 15
31 15 31 2 0 -5 -6 -9 -12 -7 -7 1 -14 -8 -16 -20 -2 -16 5 -26 27 -38 17 -8
31 -20 31 -25 0 -6 7 -10 14 -10 8 0 27 -16 42 -35 14 -19 31 -35 37 -35 5 0
20 -11 33 -25 13 -14 31 -25 40 -25 15 0 16 12 11 115 -3 76 -2 115 5 115 6 0
5 6 -2 15 -15 18 -42 19 -58 3 -9 -9 -18 -9 -37 0 -35 16 -31 27 13 44 l37 14
-50 16 c-27 9 -53 15 -57 12 -4 -3 -5 -18 -1 -34 5 -26 2 -30 -16 -30 -11 0
-21 6 -21 14 0 8 -12 23 -26 33 -15 12 -28 31 -29 48 -2 15 -8 31 -13 34 -20
13 -24 52 -6 72 20 22 54 26 54 6 0 -8 6 -14 13 -15 37 -2 144 -25 183 -38 25
-8 53 -12 63 -9 10 3 24 -1 31 -10 7 -8 20 -15 30 -15 10 0 23 -7 30 -15 14
-17 31 -20 27 -6 -1 5 7 16 17 24 23 17 13 37 -19 37 -13 0 -27 5 -30 10 -3 6
-12 10 -18 10 -8 0 -8 -3 1 -9 10 -6 7 -10 -11 -13 -30 -6 -63 27 -58 57 5 30
10 31 27 7 11 -16 21 -21 40 -16 33 8 77 -4 71 -20 -4 -9 10 -12 56 -11 34 1
72 5 85 9 13 5 22 3 22 -3 0 -22 31 -10 43 17 6 15 17 31 24 35 22 14 15 30
-9 23 -25 -8 -42 -10 -71 -7 -15 1 -17 7 -12 30 5 26 3 29 -25 34 -34 7 -39
27 -13 56 16 20 17 20 41 -4 15 -15 36 -25 53 -25 16 0 29 -4 29 -9 0 -11 44
-28 95 -36 22 -4 49 -16 60 -28 22 -24 35 -29 84 -33 39 -2 54 -20 39 -44 -9
-14 -18 -16 -47 -9 -20 5 -53 9 -74 9 -24 0 -40 5 -43 15 -3 8 -14 17 -25 20
-10 4 -18 9 -18 13 6 42 -24 60 -34 20 -7 -24 8 -48 29 -48 8 0 14 -5 14 -11
0 -18 -32 -38 -61 -39 -42 0 -54 -23 -43 -81 10 -46 9 -50 -13 -64 -30 -20
-29 -35 1 -35 25 0 51 22 39 33 -3 4 -1 7 5 7 7 0 12 -4 12 -9 0 -5 3 -17 7
-27 5 -14 2 -16 -15 -12 -15 4 -22 2 -22 -8 0 -8 7 -14 15 -14 8 0 12 -6 9
-14 -3 -8 3 -19 15 -25 11 -6 37 -41 58 -77 21 -36 48 -82 60 -102 12 -21 27
-47 32 -59 14 -30 21 -29 21 4 0 14 -3 23 -7 19 -12 -12 -29 160 -23 238 6 83
26 105 59 65 11 -13 20 -29 21 -36 0 -7 6 -16 13 -20 14 -9 35 -41 43 -65 4
-10 14 -18 23 -18 15 0 16 9 9 80 -4 44 -12 89 -18 100 -15 28 -12 56 7 76 11
11 16 29 14 50 -3 41 5 42 63 9 55 -31 72 -31 79 -3 l6 22 25 -23 c29 -27 26
-41 -10 -41 -19 0 -24 -5 -25 -27 -1 -16 -1 -31 0 -35 0 -5 -9 -8 -20 -8 -19
0 -21 -4 -15 -30 6 -31 44 -90 58 -90 4 0 8 11 8 25 0 31 17 33 22 3 2 -13 8
-22 14 -21 5 1 11 -15 12 -35 2 -20 9 -42 17 -48 8 -6 15 -15 15 -20 0 -4 -5
-3 -12 4 -19 19 -26 14 -20 -13 2 -14 8 -25 13 -25 4 0 12 -19 17 -42 5 -24
13 -42 19 -41 19 4 35 -155 37 -352 1 -123 9 -159 27 -125 31 57 58 125 73
183 17 63 30 86 79 138 11 12 17 35 17 63 0 91 47 75 70 -24 7 -30 19 -60 27
-67 8 -6 12 -17 8 -23 -5 -8 -15 -4 -30 14 -27 31 -55 34 -55 6 0 -13 -7 -20
-20 -20 -24 0 -25 -17 -5 -56 8 -16 15 -37 15 -47 0 -9 9 -34 20 -54 11 -21
20 -52 20 -70 0 -18 6 -36 14 -40 8 -5 16 -33 19 -73 8 -85 32 -199 46 -213 6
-6 11 -19 11 -29 0 -10 4 -18 9 -18 5 0 21 -25 36 -55 16 -30 30 -55 32 -55 3
0 11 7 20 15 33 34 39 563 6 624 -7 15 -13 46 -13 71 0 25 -7 58 -15 74 -8 15
-15 36 -15 45 0 9 -9 33 -20 54 -11 20 -20 44 -20 53 0 9 -6 28 -14 42 -8 15
-33 65 -56 112 -53 109 -100 193 -112 201 -5 3 -15 27 -23 53 l-15 48 35 -6
c41 -8 44 3 10 35 -13 13 -25 29 -25 35 0 11 -42 54 -53 54 -3 0 -4 -6 -1 -14
3 -8 1 -17 -5 -21 -13 -8 -53 4 -47 13 8 13 -29 79 -41 75 -6 -2 -14 5 -18 16
-6 19 -19 25 -52 24 -7 -1 -10 3 -7 8 3 5 -6 14 -20 20 -19 9 -25 18 -23 41 2
24 6 29 24 25 12 -2 20 0 17 5 -3 5 2 18 11 28 17 18 17 20 1 26 -19 7 -84
-56 -78 -75 6 -18 -23 -12 -46 9 -12 11 -26 20 -32 20 -5 0 -10 5 -10 10 0 6
-8 10 -18 10 -10 0 -27 7 -38 15 -16 13 -17 16 -4 25 13 9 7 14 -12 11 -5 0
-8 8 -8 19 0 11 -7 20 -15 20 -8 0 -19 9 -25 20 -10 18 -7 21 19 26 39 8 30
24 -14 24 -43 0 -65 -9 -65 -26 0 -24 -24 -26 -71 -5 -24 12 -54 21 -66 21
-13 0 -23 5 -23 10 0 6 -5 10 -12 10 -6 0 -19 6 -27 14 -9 8 -53 21 -99 29
-88 15 -97 19 -90 39 3 7 6 16 7 20 9 36 36 64 82 83 32 14 47 25 40 30 -22
13 -297 19 -305 6 -5 -7 -39 -11 -93 -11 -72 0 -84 2 -79 15 7 20 -6 19 -30
-2 -30 -28 -70 -45 -90 -41 -16 4 -15 6 8 18 40 19 26 41 -22 34 -30 -5 -38
-3 -44 12 -4 10 -1 21 6 26 10 6 9 12 -6 23 -21 16 -24 16 -143 18 l-72 2 -6
37 c-4 20 -4 46 0 58 4 12 2 20 -5 20 -6 0 -12 -6 -14 -12z m14 -168 c0 -5 -2
-10 -4 -10 -3 0 -8 5 -11 10 -3 6 -1 10 4 10 6 0 11 -4 11 -10z m24 -410 c7
-17 15 -28 18 -24 3 3 21 -2 40 -12 l33 -17 -35 -15 c-46 -19 -60 -40 -48 -72
5 -14 16 -31 25 -37 13 -10 14 -17 5 -38 -8 -16 -17 -23 -27 -19 -10 4 -24 -2
-36 -15 -23 -25 -32 -26 -49 -6 -7 8 -21 15 -31 15 -24 0 -24 26 0 65 22 38
32 85 31 148 -1 30 3 46 9 43 5 -4 12 -2 16 4 12 20 36 10 49 -20z m123 -56
c-3 -3 -12 -4 -19 -1 -8 3 -5 6 6 6 11 1 17 -2 13 -5z m-507 -64 c0 -15 -75
-87 -110 -105 -15 -8 -50 -22 -76 -31 -27 -9 -53 -22 -59 -29 -5 -8 -30 -19
-55 -25 -24 -7 -52 -21 -61 -31 -16 -19 -17 -19 -40 0 l-24 19 41 17 c27 10
41 22 40 33 -1 11 7 17 22 18 13 1 33 11 46 23 12 11 29 21 37 21 8 0 23 7 33
15 11 8 26 15 35 15 8 0 22 6 30 14 9 8 43 24 76 35 72 24 65 23 65 11z m1691
-71 c11 -5 17 -14 14 -20 -9 -14 25 -23 38 -10 14 14 44 14 52 1 8 -13 -30
-62 -40 -52 -5 4 -6 -1 -2 -10 3 -10 0 -19 -10 -22 -19 -8 -32 1 -42 27 -5 12
-16 22 -26 22 -10 0 -28 17 -42 38 l-23 37 31 0 c16 0 39 -5 50 -11z m193 -37
c3 -10 9 -23 12 -29 4 -9 -4 -13 -23 -13 -33 0 -65 19 -45 27 6 2 12 13 12 23
0 23 35 16 44 -8z m-2864 -52 c0 -5 -5 -10 -11 -10 -5 0 -7 5 -4 10 3 6 8 10
11 10 2 0 4 -4 4 -10z m1038 -44 c5 -64 -4 -73 -37 -38 -32 33 -33 67 -2 75
29 8 36 1 39 -37z m-534 -4 c-12 -9 -24 -24 -27 -33 -3 -11 -15 -14 -41 -11
l-37 4 31 29 c20 20 40 29 62 29 33 0 33 -1 12 -18z m1869 -64 c10 -37 -4 -50
-32 -29 -22 17 -22 49 0 36 5 -4 9 -1 9 4 0 20 18 11 23 -11z m417 -47 c0 -5
-6 -12 -12 -15 -7 -3 -4 -4 7 -1 15 3 27 -7 47 -35 26 -37 27 -40 8 -40 -11 0
-20 7 -20 15 0 10 -10 15 -29 15 -36 0 -44 10 -35 45 6 23 34 37 34 16z
m-1347 -33 c7 -26 1 -38 -19 -38 -8 0 -14 10 -14 23 0 40 24 51 33 15z m1300
-42 c6 -15 -1 -26 -15 -26 -4 0 -8 9 -8 20 0 23 15 27 23 6z m411 -525 c9 -13
-15 -72 -27 -68 -5 1 -12 20 -14 40 -3 31 -1 37 16 37 11 0 22 -4 25 -9z m40
-118 c3 -21 6 -49 6 -62 0 -24 0 -24 -18 -5 -20 20 -25 46 -17 82 8 34 22 26
29 -15z"/>
<path d="M3140 5370 c0 -19 3 -21 12 -12 9 9 9 15 0 24 -9 9 -12 7 -12 -12z"/>
<path d="M3010 6120 c0 -5 6 -13 14 -17 8 -4 18 -24 23 -43 11 -40 26 -46 31
-11 3 15 -6 33 -24 52 -28 30 -44 37 -44 19z"/>
<path d="M3600 6123 c-8 -3 -18 -11 -22 -16 -4 -7 -22 -6 -53 3 -43 12 -49 12
-60 -3 -10 -13 -29 -17 -89 -17 -63 0 -76 -3 -76 -16 0 -14 10 -15 70 -9 54 5
70 4 70 -6 0 -10 3 -10 12 -1 18 18 45 15 76 -8 35 -26 67 -18 49 11 -10 17
-9 23 7 35 11 8 30 14 44 14 13 0 20 4 17 10 -7 11 -21 12 -45 3z"/>
<path d="M3440 6035 c0 -14 30 -35 49 -35 29 0 35 17 9 25 -13 4 -31 9 -40 11
-10 3 -18 2 -18 -1z"/>
<path d="M2300 6021 c0 -25 102 -62 115 -41 13 21 -31 50 -75 50 -22 0 -40 -4
-40 -9z"/>
<path d="M2868 6007 c-14 -10 -13 -12 9 -24 32 -17 66 -17 60 0 -2 6 -17 11
-33 10 -19 -2 -24 0 -15 6 7 5 9 11 5 14 -5 2 -16 0 -26 -6z"/>
<path d="M3090 6010 c0 -5 5 -10 11 -10 5 0 7 5 4 10 -3 6 -8 10 -11 10 -2 0
-4 -4 -4 -10z"/>
<path d="M3637 6004 c-7 -7 60 -44 80 -44 19 0 16 37 -3 44 -20 8 -69 8 -77 0z"/>
<path d="M4046 5911 c-3 -5 -15 -7 -26 -4 -30 8 -28 -45 3 -56 27 -10 47 -4
41 14 -9 23 11 25 76 5 35 -11 67 -17 72 -14 4 3 8 0 8 -5 0 -19 20 -12 21 7
1 28 17 -17 18 -51 1 -24 -2 -27 -19 -22 -27 9 -39 -1 -33 -25 4 -14 14 -20
34 -20 15 0 31 -4 34 -10 10 -16 25 -11 25 9 0 10 -7 24 -15 31 -12 10 -10 16
16 41 33 32 31 49 -5 49 -13 0 -29 7 -36 15 -7 8 -27 15 -46 15 -18 0 -39 7
-48 15 -16 17 -111 21 -120 6z"/>
<path d="M4168 5833 c7 -3 16 -2 19 1 4 3 -2 6 -13 5 -11 0 -14 -3 -6 -6z"/>
<path d="M4360 5810 c0 -5 9 -10 21 -10 11 0 17 5 14 10 -3 6 -13 10 -21 10
-8 0 -14 -4 -14 -10z"/>
<path d="M4405 5680 c-3 -5 15 -15 40 -21 47 -12 64 -33 68 -82 2 -30 36 -31
62 -3 13 14 31 26 40 26 8 0 15 4 15 9 0 11 -39 21 -65 16 -11 -2 -24 -4 -28
-4 -5 -1 -5 -6 -1 -13 4 -7 3 -8 -5 -4 -8 6 -9 12 -2 20 11 13 -3 36 -22 36
-5 0 -15 7 -23 15 -17 17 -70 20 -79 5z"/>
<path d="M4666 5515 c4 -8 10 -15 15 -15 5 0 9 7 9 15 0 8 -7 15 -15 15 -9 0
-12 -6 -9 -15z"/>
<path d="M4700 5475 c0 -8 5 -15 10 -15 6 0 10 7 10 15 0 8 -4 15 -10 15 -5 0
-10 -7 -10 -15z"/>
<path d="M4740 5430 c0 -5 5 -10 11 -10 5 0 7 5 4 10 -3 6 -8 10 -11 10 -2 0
-4 -4 -4 -10z"/>
<path d="M4770 5386 c0 -8 5 -18 10 -21 6 -3 10 1 10 9 0 8 -4 18 -10 21 -5 3
-10 -1 -10 -9z"/>
<path d="M1645 5340 c-3 -11 -13 -20 -21 -20 -9 0 -14 -7 -12 -17 4 -23 28
-29 29 -6 0 16 1 16 9 -2 l8 -20 7 20 c4 11 11 30 16 43 7 18 5 22 -11 22 -10
0 -22 -9 -25 -20z"/>
<path d="M2088 5353 c7 -3 16 -2 19 1 4 3 -2 6 -13 5 -11 0 -14 -3 -6 -6z"/>
<path d="M1664 5258 c-8 -15 -14 -30 -14 -33 1 -20 -1 -25 -10 -25 -5 0 -7 8
-3 18 3 9 3 14 -2 10 -4 -4 -16 4 -27 17 -16 21 -22 23 -39 12 -10 -6 -19 -16
-19 -22 0 -5 -17 -26 -36 -45 -31 -30 -74 -97 -74 -115 0 -3 7 -5 15 -5 8 0
15 7 15 15 0 16 16 20 24 6 3 -5 -1 -14 -9 -21 -21 -18 -19 -27 9 -34 13 -3
26 -12 29 -21 7 -16 1 -22 -62 -74 -22 -19 -41 -39 -41 -45 0 -6 -18 -48 -39
-93 -59 -120 -102 -258 -112 -348 -4 -44 -13 -100 -18 -125 -11 -48 -15 -301
-5 -337 9 -32 35 -38 54 -13 21 27 64 24 68 -5 10 -72 70 -244 85 -245 4 0 7
3 7 8 0 4 2 104 3 222 2 123 8 226 14 241 16 38 21 114 7 112 -13 -3 -11 156
2 166 5 3 9 12 10 19 1 6 2 21 3 32 0 11 10 29 21 40 12 12 20 33 20 55 0 25
4 35 15 35 18 0 39 -46 31 -67 -7 -17 14 -53 31 -53 6 0 16 -24 22 -52 5 -29
17 -90 26 -135 24 -121 74 -241 95 -228 4 3 11 88 15 190 4 102 11 185 16 185
5 0 9 -4 9 -10 0 -5 5 -10 10 -10 6 0 10 14 10 31 0 26 -2 30 -15 19 -8 -6
-18 -9 -22 -7 -10 7 -9 183 1 215 10 29 29 17 22 -14 -4 -13 -2 -24 3 -24 5 0
12 16 15 35 8 40 27 39 42 -3 10 -27 10 -27 38 28 15 30 25 61 23 70 -2 8 9
26 25 40 20 17 28 33 27 55 0 16 -3 24 -6 18 -14 -35 -40 20 -28 58 10 31 35
23 35 -11 0 -33 8 -37 32 -17 19 14 29 64 14 64 -6 0 -22 1 -36 2 -22 1 -23 3
-7 12 26 15 21 35 -13 49 -16 7 -27 16 -24 21 2 5 -11 15 -30 23 -23 10 -38
24 -42 40 -3 14 -11 23 -16 20 -6 -4 -14 -1 -18 5 -5 10 -10 9 -21 -1 -22 -21
-67 -48 -81 -48 -6 0 -24 -12 -39 -26 -22 -21 -32 -24 -63 -18 l-37 6 32 27
c17 14 45 28 63 31 19 3 31 11 31 20 0 8 15 20 35 26 47 15 53 42 8 35 -5 0
-8 5 -8 12 0 7 -15 12 -41 13 -35 0 -43 -4 -55 -28z m-62 -76 c-6 -16 -7 -16
-10 1 -2 9 -8 17 -13 17 -6 0 -7 5 -4 10 11 17 35 -9 27 -28z m-47 -62 c3 -5
-1 -10 -10 -10 -9 0 -13 5 -10 10 3 6 8 10 10 10 2 0 7 -4 10 -10z m313 -27
c-5 -25 -28 -28 -28 -4 0 12 6 21 16 21 9 0 14 -7 12 -17z m-47 -66 c-16 -16
-26 20 -10 40 13 15 14 14 17 -7 2 -12 -1 -27 -7 -33z m-252 29 c16 -19 -2
-30 -37 -21 -26 6 -26 7 -8 21 25 18 31 18 45 0z m201 -75 c0 -6 -4 -13 -10
-16 -5 -3 -10 1 -10 9 0 9 5 16 10 16 6 0 10 -4 10 -9z m170 -85 c0 -20 -18
-39 -29 -32 -12 8 -14 36 -4 62 6 16 7 16 20 -2 7 -10 13 -23 13 -28z m-74 2
c3 -13 12 -29 18 -37 6 -8 11 -25 11 -38 1 -21 -3 -24 -30 -21 -34 3 -42 25
-30 84 7 39 21 44 31 12z"/>
<path d="M2081 5234 c0 -11 3 -14 6 -6 3 7 2 16 -1 19 -3 4 -6 -2 -5 -13z"/>
<path d="M3445 5168 c-12 -35 -8 -71 6 -62 8 4 7 9 -2 14 -9 6 -3 11 18 17
l31 8 -24 18 c-19 14 -25 15 -29 5z"/>
<path d="M4435 5161 c-7 -12 11 -51 23 -51 4 0 8 9 9 19 2 23 -22 47 -32 32z"/>
<path d="M2123 5144 c-3 -9 -15 -20 -27 -24 -17 -7 -14 -9 18 -9 36 -1 65 17
66 42 0 14 -51 7 -57 -9z"/>
<path d="M3553 5132 c-25 -2 -33 -8 -33 -24 0 -14 5 -18 16 -14 9 3 32 6 52 6
35 0 72 14 62 23 -9 8 -65 13 -97 9z"/>
<path d="M3945 5131 c-10 -17 4 -31 31 -31 19 0 25 5 22 18 -4 19 -43 29 -53
13z"/>
<path d="M2385 5092 c-3 -3 -5 -16 -5 -29 0 -22 3 -24 42 -21 58 4 63 30 9 44
-23 6 -43 9 -46 6z"/>
<path d="M3680 5087 c0 -7 -19 -23 -42 -35 -32 -16 -37 -22 -21 -22 12 0 25
-5 28 -10 4 -6 14 -10 23 -9 30 3 35 -1 23 -15 -10 -11 -5 -22 25 -51 26 -26
39 -34 47 -26 8 8 4 17 -11 34 -12 13 -22 28 -22 34 0 6 -7 13 -15 17 -24 9
-19 63 6 69 12 3 18 10 14 16 -9 16 -55 14 -55 -2z"/>
<path d="M2037 5084 c-4 -4 2 -14 14 -22 11 -8 23 -11 26 -8 4 3 0 6 -8 6 -12
0 -11 2 1 11 13 9 13 10 -2 6 -9 -3 -18 -1 -20 4 -2 6 -7 7 -11 3z"/>
<path d="M2098 5083 c7 -3 16 -2 19 1 4 3 -2 6 -13 5 -11 0 -14 -3 -6 -6z"/>
<path d="M3870 5075 c-15 -19 -1 -45 24 -45 29 0 35 7 29 30 -6 23 -39 32 -53
15z"/>
<path d="M1418 5067 c-13 -32 -9 -63 12 -82 11 -10 21 -15 21 -12 1 4 2 11 3
16 0 5 4 13 9 17 13 13 7 24 -12 24 -14 0 -21 8 -23 28 -2 22 -4 24 -10 9z"/>
<path d="M2550 5060 c-8 -5 -12 -12 -8 -15 9 -9 48 4 48 16 0 12 -21 11 -40
-1z"/>
<path d="M3751 5056 c-10 -11 -9 -16 2 -23 8 -4 16 -17 19 -28 2 -11 12 -21
22 -23 16 -4 18 0 11 34 -4 22 -9 42 -11 46 -8 13 -31 9 -43 -6z"/>
<path d="M2465 5018 c3 -12 -1 -28 -7 -36 -7 -8 -13 -21 -14 -30 -2 -8 -6 -18
-11 -21 -14 -10 -33 -60 -33 -86 0 -33 18 -32 30 3 6 15 17 39 25 54 8 14 15
33 15 41 0 8 7 17 15 21 8 3 15 12 15 20 0 7 7 16 15 20 24 9 6 36 -25 36 -24
0 -28 -4 -25 -22z"/>
<path d="M3925 5020 c-5 -16 -15 -20 -50 -20 -53 0 -60 -9 -41 -53 17 -41 10
-53 -26 -52 -16 1 -28 -3 -28 -7 0 -4 5 -8 10 -8 6 0 18 -8 28 -17 10 -10 37
-33 60 -52 23 -19 42 -40 42 -46 0 -23 26 -64 43 -69 20 -5 33 16 22 34 -8 13
-10 258 -2 266 10 10 -17 44 -35 44 -9 0 -20 -9 -23 -20z m-35 -139 c0 -17
-15 -19 -28 -5 -11 12 -9 14 8 14 11 0 20 -4 20 -9z"/>
<path d="M2365 5020 c-3 -5 1 -10 9 -10 8 0 18 5 21 10 3 6 -1 10 -9 10 -8 0
-18 -4 -21 -10z"/>
<path d="M1358 4963 c11 -4 18 -43 7 -43 -3 0 -15 6 -26 13 -18 10 -23 9 -26
-1 -3 -8 -20 -27 -39 -44 -19 -17 -34 -35 -34 -40 0 -18 37 -6 68 23 32 30 47
37 85 38 9 1 17 6 17 11 0 15 -38 50 -52 49 -10 0 -10 -2 0 -6z"/>
<path d="M4580 4915 c0 -8 4 -15 10 -15 5 0 7 7 4 15 -4 8 -8 15 -10 15 -2 0
-4 -7 -4 -15z"/>
<path d="M1831 4698 c-1 -27 -20 -40 -22 -15 -1 6 -4 1 -8 -13 -7 -26 7 -80
21 -80 4 0 8 8 8 18 0 14 2 15 10 2 9 -13 10 -13 11 0 0 8 2 30 5 48 2 17 0
32 -5 32 -5 0 -12 8 -14 18 -3 10 -5 6 -6 -10z"/>
<path d="M2250 4624 c-39 -37 -50 -53 -48 -73 4 -36 28 -37 95 -5 50 23 65 26
128 21 38 -3 84 -12 100 -21 43 -23 172 -80 228 -100 65 -24 374 -29 401 -7
32 27 -6 41 -108 41 -149 1 -275 25 -381 75 -16 7 -37 16 -45 19 -8 3 -22 10
-30 14 -79 45 -163 74 -232 79 -57 5 -57 4 -108 -43z"/>
<path d="M4030 4660 c-8 -5 -23 -10 -32 -10 -15 0 -97 -36 -158 -69 -122 -66
-280 -102 -442 -102 -64 0 -90 -4 -99 -15 -27 -33 5 -39 184 -38 176 1 194 4
302 54 161 74 180 80 244 86 58 6 76 3 113 -14 100 -49 138 -37 98 31 -35 59
-80 87 -142 87 -29 0 -60 -5 -68 -10z"/>
<path d="M1559 4527 c-18 -13 -32 -84 -19 -92 8 -5 19 16 21 40 0 6 8 18 16
28 20 22 5 41 -18 24z"/>
<path d="M4268 4113 c7 -3 16 -2 19 1 4 3 -2 6 -13 5 -11 0 -14 -3 -6 -6z"/>
<path d="M3983 3932 c-11 -7 -18 -40 -15 -74 1 -10 15 -24 30 -32 35 -18 69
-5 91 35 13 24 13 29 -2 53 -14 20 -25 26 -55 26 -20 0 -42 -4 -49 -8z"/>
<path d="M2900 3901 c-18 -5 -26 -15 -28 -36 -4 -46 19 -70 68 -70 51 0 74 25
66 69 -4 16 -7 31 -9 32 -7 8 -76 11 -97 5z"/>
<path d="M3180 2830 c-104 -6 -173 -32 -185 -70 -3 -11 -10 -20 -15 -20 -30 0
-40 -149 -13 -205 26 -55 75 -59 173 -12 41 20 59 22 181 19 l136 -3 32 31
c32 29 33 32 29 95 -4 68 -25 110 -65 130 -12 6 -27 16 -34 22 -18 14 -122 20
-239 13z m137 -54 c23 -20 26 -28 17 -42 -15 -26 -61 -39 -90 -25 -28 12 -31
37 -8 69 20 29 46 28 81 -2z m-137 -12 c11 -13 10 -18 -7 -35 -19 -20 -22 -20
-52 -5 -37 19 -39 33 -8 46 33 13 53 12 67 -6z m255 -29 c0 -28 -3 -30 -35
-30 -26 0 -36 5 -38 18 -7 34 6 48 40 45 29 -3 33 -6 33 -33z"/>
<path d="M1791 2587 c-29 -14 -83 -88 -99 -136 -15 -43 -15 -146 -1 -174 7
-12 24 -36 40 -54 l28 -32 -30 -61 c-16 -33 -29 -66 -29 -73 0 -6 -7 -21 -15
-31 -8 -11 -15 -26 -15 -34 0 -8 -6 -28 -14 -45 -29 -67 -45 -114 -61 -172
-32 -115 -52 -200 -60 -250 -4 -27 -11 -58 -17 -68 -5 -10 -7 -25 -4 -33 4
-12 17 -10 72 11 110 41 212 32 329 -29 17 -9 46 -16 66 -16 54 0 116 -57 124
-115 9 -59 -7 -102 -60 -158 -25 -27 -45 -55 -45 -63 0 -28 -42 -89 -86 -124
-47 -37 -53 -50 -29 -70 8 -7 15 -27 15 -45 0 -18 -7 -38 -15 -45 -19 -16 -19
-49 0 -74 19 -25 19 -87 0 -112 -8 -10 -15 -41 -15 -67 0 -47 -1 -49 -42 -67
-24 -11 -52 -20 -64 -20 -23 0 -87 -44 -77 -53 10 -10 3001 -8 3007 1 7 12
-49 52 -72 52 -33 0 -82 21 -92 40 -6 10 -10 34 -10 52 0 18 -7 42 -15 52 -18
24 -19 75 -3 128 9 31 9 44 0 59 -21 34 -15 85 14 106 l25 19 -37 24 c-45 29
-89 89 -106 144 -7 22 -30 56 -51 76 -97 94 -50 248 82 265 25 3 55 11 65 17
119 65 290 62 368 -9 37 -33 49 14 24 96 -8 25 -26 93 -40 151 -37 158 -47
193 -62 222 -8 14 -14 31 -14 38 0 12 -56 152 -92 228 -22 48 -21 56 28 122
23 32 25 42 22 110 -3 58 -11 88 -33 133 -36 73 -73 97 -148 97 -52 0 -61 -4
-122 -50 -36 -27 -70 -50 -75 -50 -4 0 -10 -3 -12 -8 -4 -10 -93 -72 -153
-107 -27 -15 -52 -31 -55 -35 -12 -16 -323 -150 -350 -150 -8 0 -28 -7 -44
-15 -15 -8 -40 -15 -55 -15 -15 0 -50 -6 -77 -14 -161 -47 -599 -47 -807 0
-164 37 -193 46 -263 79 -40 19 -78 35 -84 35 -14 0 -144 66 -194 98 -65 42
-71 46 -113 69 -21 12 -80 53 -130 92 -88 68 -95 71 -145 71 -29 0 -64 -6 -77
-13z m1239 -708 c0 -5 -6 -9 -13 -9 -7 0 -20 -27 -30 -65 -17 -64 -17 -65 5
-119 32 -75 66 -111 123 -134 57 -22 69 -50 37 -85 -10 -12 -22 -30 -25 -39
-9 -25 -22 -22 -57 12 -17 17 -37 30 -45 30 -9 0 -24 5 -35 12 -29 18 -35 3
-11 -30 12 -17 21 -44 21 -61 0 -34 43 -103 77 -122 12 -6 24 -21 27 -32 13
-49 -49 -64 -87 -21 -12 14 -33 39 -47 54 -36 40 -63 132 -49 167 6 15 15 31
21 34 17 11 -49 21 -84 14 -35 -8 -112 -82 -131 -125 -11 -24 -11 -24 -15 12
-2 21 4 51 14 70 20 40 73 110 92 122 32 19 52 47 52 72 0 102 106 280 153
257 4 -2 7 -8 7 -14z m408 -26 c46 -59 69 -113 77 -181 5 -48 12 -65 27 -73
21 -11 66 -60 106 -113 22 -31 31 -106 12 -106 -5 0 -21 18 -34 39 -28 43 -94
73 -153 68 -37 -2 -38 -4 -18 -31 44 -58 -21 -217 -106 -261 -22 -12 -29 -12
-47 0 -27 20 -19 45 30 91 47 43 68 88 68 143 0 22 5 42 13 44 6 3 -4 3 -23 0
-19 -3 -50 -19 -68 -35 -32 -27 -52 -30 -52 -6 0 7 -9 21 -19 32 -11 12 -21
29 -23 40 -3 20 4 25 70 52 23 10 42 24 42 31 0 7 6 13 13 13 8 0 24 21 37 46
20 41 22 56 17 127 -4 59 -10 83 -21 89 -22 12 -20 28 3 28 11 0 33 -17 49
-37z m-133 -154 c17 -5 36 -19 43 -30 12 -19 11 -24 -7 -43 -19 -18 -24 -19
-43 -7 -30 19 -146 17 -184 -2 -30 -15 -32 -15 -52 6 -33 35 -23 60 34 78 51
17 149 16 209 -2z m-53 -401 c-5 -92 15 -142 78 -191 38 -29 61 -39 102 -43
81 -9 85 -12 42 -35 -33 -17 -51 -20 -114 -15 -41 3 -97 13 -124 22 -44 15
-51 15 -81 1 -56 -27 -174 -33 -229 -12 -25 10 -46 21 -46 25 0 4 34 10 75 13
73 5 75 6 120 54 52 56 70 104 69 191 l-1 63 56 -3 56 -3 -3 -67z"/>
</g>
</svg>
